<svg xmlns="http://www.w3.org/2000/svg" xmlns:xlink="http://www.w3.org/1999/xlink" viewBox="0 0 626.51 530.29"><defs><style>.cls-1{fill:url(#Безымянный_градиент_263);}.cls-2{fill:url(#Безымянный_градиент_5);}.cls-18,.cls-3,.cls-40,.cls-44,.cls-45,.cls-48,.cls-5,.cls-64,.cls-65{fill:none;}.cls-18,.cls-3,.cls-40,.cls-44,.cls-45,.cls-48,.cls-5,.cls-64,.cls-65,.cls-66{stroke-miterlimit:10;}.cls-3{stroke-width:0.93px;stroke:url(#Безымянный_градиент_10);}.cls-4{fill:url(#Безымянный_градиент_17);}.cls-5{stroke-width:2.67px;stroke:url(#Безымянный_градиент_164);}.cls-6{fill:url(#Безымянный_градиент_5-2);}.cls-7{fill:url(#Безымянный_градиент_5-3);}.cls-8{fill:url(#Безымянный_градиент_5-4);}.cls-9{fill:url(#Безымянный_градиент_5-5);}.cls-10{fill:url(#Безымянный_градиент_5-6);}.cls-11{fill:url(#Безымянный_градиент_5-7);}.cls-12{fill:url(#Безымянный_градиент_18);}.cls-13{fill:url(#Безымянный_градиент_33);}.cls-14{fill:url(#Безымянный_градиент_33-2);}.cls-15{fill:url(#Безымянный_градиент_33-3);}.cls-16{fill:url(#Безымянный_градиент_17-2);}.cls-17{fill:url(#Безымянный_градиент_33-4);}.cls-18{stroke-width:1.55px;stroke:url(#Безымянный_градиент_33-5);}.cls-19{fill:url(#Безымянный_градиент_33-6);}.cls-20{fill:url(#Безымянный_градиент_17-3);}.cls-21{fill:url(#Безымянный_градиент_33-7);}.cls-22{fill:url(#Безымянный_градиент_11);}.cls-23{fill:url(#Безымянный_градиент_16);}.cls-24{fill:url(#Безымянный_градиент_170);}.cls-25,.cls-66{fill:#fff;}.cls-26{fill:url(#Безымянный_градиент_170-2);}.cls-27{fill:url(#Безымянный_градиент_170-3);}.cls-28{fill:url(#Безымянный_градиент_170-4);}.cls-29{fill:url(#Безымянный_градиент_216);}.cls-30{fill:url(#Безымянный_градиент_40);}.cls-31{fill:url(#Безымянный_градиент_51);}.cls-32{fill:url(#Безымянный_градиент_50);}.cls-33{fill:url(#Безымянный_градиент_9);}.cls-34{fill:url(#Безымянный_градиент_123);}.cls-35{fill:url(#Безымянный_градиент_5-8);}.cls-36{fill:url(#Безымянный_градиент_271);}.cls-37{fill:url(#Безымянный_градиент_5-9);}.cls-38{fill:url(#Безымянный_градиент_123-2);}.cls-39{fill:url(#Безымянный_градиент_9-2);}.cls-40{stroke:#17ff44;stroke-width:1.95px;}.cls-41{fill:url(#Безымянный_градиент_271-2);}.cls-42{fill:url(#Безымянный_градиент_269);}.cls-43{fill:#191337;}.cls-44,.cls-45,.cls-64{stroke:#fff;}.cls-44{stroke-linecap:round;}.cls-45{stroke-width:0.76px;}.cls-46{fill:url(#Безымянный_градиент_5-10);}.cls-47{fill:url(#Безымянный_градиент_123-3);}.cls-48{stroke:#d6d9e8;stroke-width:5.49px;}.cls-49{fill:url(#Безымянный_градиент_269-2);}.cls-50{fill:url(#Безымянный_градиент_16-2);}.cls-51{fill:url(#Безымянный_градиент_16-3);}.cls-52{fill:url(#Безымянный_градиент_40-2);}.cls-53{fill:url(#Безымянный_градиент_5-11);}.cls-54{fill:url(#Безымянный_градиент_49);}.cls-55{fill:url(#Безымянный_градиент_47);}.cls-56{fill:#464b8b;}.cls-57{fill:url(#Безымянный_градиент_39);}.cls-58{fill:url(#Безымянный_градиент_123-4);}.cls-59{fill:url(#Безымянный_градиент_48);}.cls-60{fill:url(#Безымянный_градиент_123-5);}.cls-61{fill:url(#Безымянный_градиент_46);}.cls-62{fill:url(#Безымянный_градиент_18-2);}.cls-63{fill:#211a49;}.cls-65,.cls-66{stroke:#dadada;}.cls-65{stroke-width:5px;}.cls-66{stroke-width:3px;}</style><linearGradient id="Безымянный_градиент_263" y1="265.15" x2="626.51" y2="265.15" gradientUnits="userSpaceOnUse"><stop offset="0" stop-color="#f0f2f5"/><stop offset="0.99" stop-color="#f5f7f8"/></linearGradient><linearGradient id="Безымянный_градиент_5" x1="86.27" y1="422.49" x2="61.74" y2="236.31" gradientUnits="userSpaceOnUse"><stop offset="0" stop-color="#1f1844"/><stop offset="0.99" stop-color="#3d3c99"/></linearGradient><linearGradient id="Безымянный_градиент_10" x1="85.04" y1="417.69" x2="63.46" y2="253.93" gradientUnits="userSpaceOnUse"><stop offset="0" stop-color="#3f3d9e"/><stop offset="0.99" stop-color="#423e9f"/></linearGradient><linearGradient id="Безымянный_градиент_17" x1="97.62" y1="354" x2="188.66" y2="333.08" gradientUnits="userSpaceOnUse"><stop offset="0.01" stop-color="#bbc0d9"/><stop offset="1" stop-color="#d6dbf8"/></linearGradient><linearGradient id="Безымянный_градиент_164" x1="464.1" y1="304.43" x2="533.77" y2="317.19" gradientTransform="translate(-409.59 152.62) rotate(-10.18)" gradientUnits="userSpaceOnUse"><stop offset="0" stop-color="#bac6d8"/><stop offset="0.99" stop-color="#d6dbf8"/></linearGradient><linearGradient id="Безымянный_градиент_5-2" x1="84.54" y1="357.82" x2="56.62" y2="330.39" xlink:href="#Безымянный_градиент_5"/><linearGradient id="Безымянный_градиент_5-3" x1="83.65" y1="380.87" x2="51.17" y2="369.56" xlink:href="#Безымянный_градиент_5"/><linearGradient id="Безымянный_градиент_5-4" x1="86.08" y1="357.75" x2="115.62" y2="334.5" xlink:href="#Безымянный_градиент_5"/><linearGradient id="Безымянный_градиент_5-5" x1="83.92" y1="380.91" x2="112.6" y2="367.18" xlink:href="#Безымянный_градиент_5"/><linearGradient id="Безымянный_градиент_5-6" x1="89.04" y1="402.49" x2="50.86" y2="397.93" xlink:href="#Безымянный_градиент_5"/><linearGradient id="Безымянный_градиент_5-7" x1="84.8" y1="405.17" x2="110.89" y2="389.23" xlink:href="#Безымянный_градиент_5"/><linearGradient id="Безымянный_градиент_18" x1="94.59" y1="297.61" x2="85.66" y2="334.11" gradientUnits="userSpaceOnUse"><stop offset="0.01" stop-color="#3d3c99"/><stop offset="1" stop-color="#1f1844"/></linearGradient><linearGradient id="Безымянный_градиент_33" x1="1558.38" y1="747.21" x2="1570.17" y2="747.21" gradientTransform="translate(-1560 933.06) rotate(-45.37)" gradientUnits="userSpaceOnUse"><stop offset="0" stop-color="#e0e4eb"/><stop offset="0.99" stop-color="#f3f6fd"/></linearGradient><linearGradient id="Безымянный_градиент_33-2" x1="2100.37" y1="1570.43" x2="2112.27" y2="1570.43" gradientTransform="translate(-2071.61 1902.75) rotate(-72.22)" xlink:href="#Безымянный_градиент_33"/><linearGradient id="Безымянный_градиент_33-3" x1="-1405.7" y1="1267.18" x2="-1393.9" y2="1267.18" gradientTransform="matrix(0.63, 0.78, -0.78, 0.63, 1965.39, 630.69)" xlink:href="#Безымянный_градиент_33"/><linearGradient id="Безымянный_градиент_17-2" x1="101.07" y1="379.69" x2="113.37" y2="367.07" xlink:href="#Безымянный_градиент_17"/><linearGradient id="Безымянный_градиент_33-4" x1="-1544.46" y1="1500.55" x2="-1532.37" y2="1500.55" gradientTransform="matrix(0.5, 0.87, -0.77, 0.45, 2023.4, 1031.96)" xlink:href="#Безымянный_градиент_33"/><linearGradient id="Безымянный_градиент_33-5" x1="562.06" y1="323.45" x2="579.44" y2="323.45" gradientTransform="translate(-539.39 192.65) rotate(-13.38)" xlink:href="#Безымянный_градиент_33"/><linearGradient id="Безымянный_градиент_33-6" x1="2435.27" y1="2091.68" x2="2447.63" y2="2091.68" gradientTransform="matrix(0.04, -0.93, 1, 0.04, -2128.35, 2585.09)" xlink:href="#Безымянный_градиент_33"/><linearGradient id="Безымянный_градиент_17-3" x1="101.35" y1="399.51" x2="113.63" y2="385.89" xlink:href="#Безымянный_градиент_17"/><linearGradient id="Безымянный_градиент_33-7" x1="-1598.67" y1="1858.63" x2="-1585.29" y2="1858.63" gradientTransform="matrix(0.35, 0.94, -0.74, 0.28, 2032.93, 1369.45)" xlink:href="#Безымянный_градиент_33"/><linearGradient id="Безымянный_градиент_11" x1="96.5" y1="297.08" x2="87.58" y2="333.58" gradientUnits="userSpaceOnUse"><stop offset="0" stop-color="#e6eaf1"/><stop offset="0.99" stop-color="#f3f6fd"/></linearGradient><linearGradient id="Безымянный_градиент_16" x1="60.01" y1="457.23" x2="128.02" y2="441.61" gradientUnits="userSpaceOnUse"><stop offset="0.11" stop-color="#8988d5"/><stop offset="0.56" stop-color="#9d9ce8"/><stop offset="1" stop-color="#a7a5ee"/></linearGradient><linearGradient id="Безымянный_градиент_170" x1="80.02" y1="140.33" x2="395.31" y2="140.33" gradientUnits="userSpaceOnUse"><stop offset="0.01" stop-color="#bbbfd9"/><stop offset="1" stop-color="#d6dbf8"/></linearGradient><linearGradient id="Безымянный_градиент_170-2" x1="390.75" y1="425.33" x2="417.16" y2="425.33" xlink:href="#Безымянный_градиент_170"/><linearGradient id="Безымянный_градиент_170-3" x1="488.62" y1="419.68" x2="515.48" y2="419.68" xlink:href="#Безымянный_градиент_170"/><linearGradient id="Безымянный_градиент_170-4" x1="452.16" y1="427.17" x2="477.09" y2="427.17" xlink:href="#Безымянный_градиент_170"/><linearGradient id="Безымянный_градиент_216" x1="453.58" y1="370.34" x2="453.58" y2="205.31" gradientUnits="userSpaceOnUse"><stop offset="0" stop-color="#201f4f"/><stop offset="0.39" stop-color="#3d3c99"/><stop offset="1" stop-color="#403da0"/></linearGradient><linearGradient id="Безымянный_градиент_40" x1="505.42" y1="291.38" x2="520.42" y2="292.88" gradientUnits="userSpaceOnUse"><stop offset="0.11" stop-color="#343381"/><stop offset="0.56" stop-color="#3d3c99"/><stop offset="1" stop-color="#403da0"/></linearGradient><linearGradient id="Безымянный_градиент_51" x1="393.6" y1="285.03" x2="384.65" y2="258.61" gradientUnits="userSpaceOnUse"><stop offset="0" stop-color="#753200"/><stop offset="0.05" stop-color="#793300"/><stop offset="0.38" stop-color="#8e3d00"/><stop offset="0.7" stop-color="#9c4200"/><stop offset="1" stop-color="#a04400"/></linearGradient><linearGradient id="Безымянный_градиент_50" x1="346.27" y1="356.85" x2="419.67" y2="356.85" gradientUnits="userSpaceOnUse"><stop offset="0" stop-color="#f7d6d2"/><stop offset="0.95" stop-color="#f7e5e3"/></linearGradient><linearGradient id="Безымянный_градиент_9" x1="365.5" y1="407.29" x2="411.83" y2="407.29" gradientUnits="userSpaceOnUse"><stop offset="0.05" stop-color="#f7e5e3"/><stop offset="1" stop-color="#f7d6d2"/></linearGradient><linearGradient id="Безымянный_градиент_123" x1="393.93" y1="453.82" x2="421.72" y2="453.82" gradientUnits="userSpaceOnUse"><stop offset="0" stop-color="#753200"/><stop offset="1" stop-color="#a04400"/></linearGradient><linearGradient id="Безымянный_градиент_5-8" x1="366.66" y1="257.79" x2="424.61" y2="249.82" xlink:href="#Безымянный_градиент_5"/><linearGradient id="Безымянный_градиент_271" x1="396.3" y1="254.93" x2="447.81" y2="247.84" gradientUnits="userSpaceOnUse"><stop offset="0.01" stop-color="#bbbfd9"/><stop offset="0.29" stop-color="#cacde2"/><stop offset="0.84" stop-color="#f2f3f8"/><stop offset="1" stop-color="#fff"/></linearGradient><linearGradient id="Безымянный_градиент_5-9" x1="403.82" y1="257.87" x2="486.05" y2="246.56" xlink:href="#Безымянный_градиент_5"/><linearGradient id="Безымянный_градиент_123-2" x1="304.36" y1="474.15" x2="335.04" y2="474.15" xlink:href="#Безымянный_градиент_123"/><linearGradient id="Безымянный_градиент_9-2" x1="356.25" y1="362.1" x2="387.75" y2="381.1" xlink:href="#Безымянный_градиент_9"/><linearGradient id="Безымянный_градиент_271-2" x1="245.04" y1="263.87" x2="379.59" y2="263.87" xlink:href="#Безымянный_градиент_271"/><linearGradient id="Безымянный_градиент_269" x1="361.26" y1="290.51" x2="393.66" y2="248.14" gradientUnits="userSpaceOnUse"><stop offset="0" stop-color="#fff"/><stop offset="0.16" stop-color="#f2f3f8"/><stop offset="0.71" stop-color="#cacde2"/><stop offset="0.99" stop-color="#bbbfd9"/></linearGradient><linearGradient id="Безымянный_градиент_5-10" x1="467.91" y1="263.42" x2="477.81" y2="263.42" xlink:href="#Безымянный_градиент_5"/><linearGradient id="Безымянный_градиент_123-3" x1="442.59" y1="229.45" x2="439.64" y2="275.68" xlink:href="#Безымянный_градиент_123"/><linearGradient id="Безымянный_градиент_269-2" x1="425.53" y1="283.47" x2="453.6" y2="283.47" xlink:href="#Безымянный_градиент_269"/><linearGradient id="Безымянный_градиент_16-2" x1="540.56" y1="407.83" x2="558.58" y2="407.83" xlink:href="#Безымянный_градиент_16"/><linearGradient id="Безымянный_градиент_16-3" x1="232.22" y1="407.83" x2="249.06" y2="407.83" xlink:href="#Безымянный_градиент_16"/><linearGradient id="Безымянный_градиент_40-2" x1="395.31" y1="318.7" x2="395.31" y2="301.65" xlink:href="#Безымянный_градиент_40"/><linearGradient id="Безымянный_градиент_5-11" x1="413.43" y1="219.99" x2="434.06" y2="219.99" xlink:href="#Безымянный_градиент_5"/><linearGradient id="Безымянный_градиент_49" x1="472.41" y1="168.46" x2="484.49" y2="181.91" gradientUnits="userSpaceOnUse"><stop offset="0" stop-color="#201f4f"/><stop offset="0.96" stop-color="#252557"/></linearGradient><linearGradient id="Безымянный_градиент_47" x1="457.88" y1="171.36" x2="469.5" y2="191.99" gradientUnits="userSpaceOnUse"><stop offset="0" stop-color="#29295c"/><stop offset="0.96" stop-color="#252557"/></linearGradient><linearGradient id="Безымянный_градиент_39" x1="374.44" y1="135.16" x2="487.97" y2="135.16" gradientUnits="userSpaceOnUse"><stop offset="0" stop-color="#464b8b"/><stop offset="0.28" stop-color="#393c76"/><stop offset="0.74" stop-color="#27275a"/><stop offset="1" stop-color="#201f4f"/></linearGradient><linearGradient id="Безымянный_градиент_123-4" x1="383.65" y1="189.76" x2="453.66" y2="157.35" xlink:href="#Безымянный_градиент_123"/><linearGradient id="Безымянный_градиент_48" x1="454.8" y1="172.91" x2="430.04" y2="197.2" gradientUnits="userSpaceOnUse"><stop offset="0" stop-color="#a04400"/><stop offset="1" stop-color="#753200"/></linearGradient><linearGradient id="Безымянный_градиент_123-5" x1="454.74" y1="155.62" x2="451.55" y2="158.76" xlink:href="#Безымянный_градиент_123"/><linearGradient id="Безымянный_градиент_46" x1="373.43" y1="167.4" x2="443.48" y2="134.97" gradientUnits="userSpaceOnUse"><stop offset="0" stop-color="#a04400" stop-opacity="0"/><stop offset="0.24" stop-color="#974000" stop-opacity="0.14"/><stop offset="0.7" stop-color="#803700" stop-opacity="0.52"/><stop offset="0.9" stop-color="#753200" stop-opacity="0.7"/></linearGradient><linearGradient id="Безымянный_градиент_18-2" x1="436.5" y1="221.76" x2="477.09" y2="221.76" xlink:href="#Безымянный_градиент_18"/></defs><g id="Layer_2" data-name="Layer 2"><g id="_21" data-name="21"><path class="cls-1" d="M605.11,277.63C550.09,165.16,392.74.43,188.27,0c-213.36-.44-234,211.17-119,270S16.12,402.13,136.33,475.8C258,550.36,518,543.36,582,485.36S628.88,326.22,605.11,277.63Z"/><path class="cls-2" d="M86.55,423.82s27-30.06,24.14-41.92,13.89-26.24,14.22-43.5c.37-19.54-10.07-14.32-13.68-22.67-5.36-12.39,6.56-23.36-11.47-28.1-12.31-3.24-21,3.08-19.84-12.16s-4.39-34.08-14.25-40.92c-14.09-9.78-42.76-10.54-33.1,9.16,10.14,20.71,1.2,54.81-1.17,64.15C6.41,406.56,86.55,423.82,86.55,423.82Z"/><path class="cls-3" d="M56.42,254.86c3.09,25.48,35.05,66.2,20.56,93.41s7.47,69.34,7.47,69.34"/><path class="cls-4" d="M168.39,366.89c-17.54,6.2,1.45,28.89-17.73,39.11s-43.77,15.4-44.9,10.44c-.08-.33-1.11-3.62-2.2-8.43-.25-1.11-.5-2.31-.75-3.57-.06-.35-.13-.71-.2-1.07a97.09,97.09,0,0,1-1.45-11.61c0-.12,0-.24,0-.36-.09-1.55-.12-3.11-.09-4.66s.11-3,.27-4.43c.57-5.52,2.15-10.61,5.38-14.26a15.27,15.27,0,0,1,2.8-2.51c13.33-9.27,18.65-4.77,18.55-18.47-.18-23.48,6.51-27,14.38-24.67s14,3,15.17-5.71-5.95-47.36,11.92-47.29c31,.1,15.31,39.62,12.18,46-7.5,15.37,8.1,17.78,11.81,29S185.92,360.69,168.39,366.89Z"/><path class="cls-5" d="M102.33,450.18S97.62,407,130.56,382.73c14.88-10.94,42.54-50,40-92.27"/><path class="cls-6" d="M56.15,330c4.09-6.93,33.5,21.68,28.35,28S52.25,336.58,56.15,330Z"/><path class="cls-7" d="M48.72,369c.59-8.08,36.1,3.53,34.28,11.52S48.16,376.7,48.72,369Z"/><path class="cls-8" d="M115.76,333.33c6.29,4.93-24.76,31.67-30.3,25.75S109.77,328.64,115.76,333.33Z"/><path class="cls-9" d="M112.5,367c5.29,6-24.69,21-29.2,14.23S107.47,361.34,112.5,367Z"/><path class="cls-10" d="M51.08,398c-1.55-7.41,37.59-3.14,37.93,4.49S52.56,405.11,51.08,398Z"/><path class="cls-11" d="M110.6,389.4c4.05,6.87-24,24-27.26,16.52S106.73,382.86,110.6,389.4Z"/><path class="cls-12" d="M95.12,296.6C103,297.17,92.8,337,85,335.15S87.6,296.05,95.12,296.6Z"/><path class="cls-13" d="M59.11,328.08c4.1-6.94,33.51,21.68,28.36,28S55.21,334.69,59.11,328.08Z"/><path class="cls-14" d="M51.09,367.34c.59-8.08,36.09,3.54,34.27,11.52S50.53,375,51.09,367.34Z"/><path class="cls-15" d="M117,331.56c6.29,4.92-24.77,31.67-30.3,25.74S111,326.86,117,331.56Z"/><path class="cls-16" d="M102,380.77c.54-5.42,2.06-10.42,5.16-14,3.76-.74,6.91-.59,8.28,1C118.36,371,110.4,377.16,102,380.77Z"/><path class="cls-17" d="M114,365.76c5.28,6-24.7,21-29.21,14.23S109,360.07,114,365.76Z"/><path class="cls-18" d="M87.11,325.76s.9,20.68-1.84,38.73,4.17,48.6,15.42,58.36"/><path class="cls-19" d="M51.08,396.63c-1.55-7.42,37.59-3.15,37.93,4.48S52.56,403.69,51.08,396.63Z"/><path class="cls-20" d="M103.41,402.51c-.06-.35-.13-.7-.19-1.06a95.77,95.77,0,0,1-1.4-11.4c0-.12,0-.23,0-.35,6.4-3.54,13.22-5.33,15-2.26C119.1,391.29,111.28,398.36,103.41,402.51Z"/><path class="cls-21" d="M115.39,384.5c4,6.87-24,24-27.26,16.52S111.52,378,115.39,384.5Z"/><path class="cls-22" d="M97,296.07c7.9.58-2.32,40.39-10.13,38.55S89.51,295.52,97,296.07Z"/><path class="cls-23" d="M103.82,487.1H79.49a21.91,21.91,0,0,1-21.71-19l-6-44.78a5.06,5.06,0,0,1,5-5.73h69.8a5.06,5.06,0,0,1,5,5.73l-6,44.78A21.9,21.9,0,0,1,103.82,487.1Z"/><rect class="cls-24" x="80.02" y="32.08" width="315.29" height="216.5" rx="11.45"/><rect class="cls-25" x="88.99" y="41.36" width="297.35" height="197.93" rx="6.84"/><path class="cls-26" d="M396.86,482.25a6.11,6.11,0,0,1-6.05-7l14.41-106.86,11.94,1.36L402.9,477C402.47,480,396.86,482.25,396.86,482.25Z"/><path class="cls-27" d="M503.41,474.4,488.62,365.52l10-4,16.73,110.79c.69,3.94-2.33,4.66-5.32,5.21S504.11,478.43,503.41,474.4Z"/><path class="cls-28" d="M464.8,487.45,452.16,363.32H464.5l12.58,123.25c.27,3.83-2.65,3.68-5.52,4.11C468.35,491.16,465.11,491.78,464.8,487.45Z"/><path class="cls-29" d="M510.59,348.87c-2.61,19.28-31,22-64,23.07-1,.5-37.46.28-54.44-5.44l.59-130.63c0-11,4.72-29.23,20.81-29.5,27-.45,77.16-4.56,96.78,1.5,4.49,16.12,7.76,33.92.28,80.48C506.32,315,511.85,339.61,510.59,348.87Z"/><path class="cls-30" d="M503.15,216c6,18,5.24,28.4-2.75,57.47-13.3,48.45,8.54,73.33-37.63,97.76,28-1.6,45.6-5.92,47.82-22.33,1.26-9.26-4.27-33.87,0-60.52,5.51-34.29,15.79-62.32,2.12-78.88C508.93,204.89,501.13,209.89,503.15,216Z"/><path class="cls-31" d="M402.06,247.35s-4,18.73-3,27.47c-20.12,9.07-24.42,16.27-24.16,17.75l-4.29-17.63,8.43-.91,5.33-25.37C387.52,251.81,402.06,247.35,402.06,247.35Z"/><path class="cls-32" d="M419.67,322.4c-11-.72-43,.59-57.65,4.31-27.5,7-12.81,38-2.13,64.78,3.65-8.95,9.93-48.49,13.61-53.09C381,329.06,409.66,324.1,419.67,322.4Z"/><polygon class="cls-33" points="389.93 363.06 381.33 376.14 365.5 400.2 393.93 451.52 411.83 440.67 389.93 363.06"/><polygon class="cls-34" points="419.72 444.47 411.85 440.76 411.83 440.67 393.93 451.52 394.04 451.73 398.22 459.3 410.05 466.97 415.02 466.3 421.72 451.3 419.72 444.47"/><path class="cls-35" d="M431.62,198.18c-18.37,2.62-26.24,4-33.57,15.34-8.88,13.72-13.7,30.43-14.18,34.46a3.66,3.66,0,0,0,.54.68c3.11,3.15,16.65.77,16.65.77s-4.51,4.26-3.84,15.42c.06.92,5.34,35.69,5.34,36.4h16.6C418.28,266.22,417.23,230.72,431.62,198.18Z"/><path class="cls-36" d="M453.3,196.56,432.81,198l-1.19.16c-14.39,32.54-13.34,68-12.46,103.07h17.62C427.37,265.46,441.47,229.84,453.3,196.56Z"/><path class="cls-37" d="M475,256.64c6.81,3,24.58.14,31.63-1.06,0,0-1.6-39.3-13.29-52.06s-32.42-7.5-32.42-7.5l-7.59.54c-11.83,33.28-25.93,68.9-16.52,104.69h48S475.68,263.38,475,256.64Z"/><path class="cls-38" d="M315.08,459.7c-4,4.26-9.79,10.49-10.72,11.36,4.81,1.9,2.39,15.79,6.36,18s14.52-7.32,19.59-6.16c.31-3.05,2.76-9.41,4.7-13.84l0,0-19.69-10C315.17,459.44,315.08,459.7,315.08,459.7Z"/><path class="cls-39" d="M487,318.38l-80.48-1.07s-31.81,2.89-42.37,21.27C362.83,341,354.38,359,354.38,359c-13.86,32.67-38.1,92.62-40.82,99.92l23.83,11.39,51.27-88.18,13.06-13.95s40.27-2,62.14-9.66C497.68,346.68,487,318.38,487,318.38Z"/><path class="cls-40" d="M397.44,317s-3.62-.45-9.27-.82"/><path class="cls-41" d="M372.53,301.44H286.05L270.19,233.3a5.71,5.71,0,0,1,5.56-7h80.84Z"/><path class="cls-42" d="M409.11,297.19l-.91,4.06H372.53l-18.69-71.39a2.85,2.85,0,0,1,2.75-3.56h0a2.83,2.83,0,0,1,2.75,2.17l11.31,46.47,4.29,17.63v.05a1.46,1.46,0,0,0,0,.17l0,.06H405.6A3.59,3.59,0,0,1,409.11,297.19Z"/><circle class="cls-25" cx="317.56" cy="265.69" r="7.26"/><path class="cls-43" d="M275.31,476.82s-9.48-2.09-13.11-.79-4.56,4-4.82,6.9,2.79,7,14.57,11.36a356.49,356.49,0,0,0,36.82,10.92c3.85.78,10.39,2,16,1.62a7.27,7.27,0,0,0,6.55-5.55,20.09,20.09,0,0,1,1.16-3.36c1-2,.62-4.36,1.2-6s1.95-13-1.21-14.64-8.36,8.07-15.44,7.28-7.86-9.66-7.86-9.66,3.37-3.1,1.56-5.26.26-3.9-1.17-4.75S303,467,303,467s-16.35,6.73-22.76,9.43C279,477,275.31,476.82,275.31,476.82Z"/><path class="cls-44" d="M261.64,485.27c21,12,45.42,12.25,45.42,12.25,6.82,1.58,13.65,6.12,22.41.91l.77-.41"/><path class="cls-43" d="M393.91,453.81s12.13,3.65,14.5,7.6,10.46-8.1,6.89-14.91,1.3-5.7,4.65-2.93,6.06.76,8.41,2.76,7.14,6.4,3.63,14.68-11.37,11.84-14.48,18.05-2,18.86-6.79,23.59-13.89,10.78-24.21,5.73-1.1-18.87,1.3-22.3,2.87-15.2,3-20S390.14,455.24,393.91,453.81Z"/><path class="cls-45" d="M419.67,445.08s6.78,2.05,4.44,10.36-10.93,14.64-11.81,23.41-.8,16.56-9.29,22.93-12.2,5.46-12.2,5.46"/><path class="cls-46" d="M477.81,278.75l-3.59-30.66s-4.55,2.26-4.94,6.59-1.37,21.86-1.37,21.86Z"/><path class="cls-47" d="M502.94,256.18c-.09,8.57,1.79,27.28-1.88,35.59-4.78,10.81-9.31,10.26-27.21,7.25s-46.07-12.84-55.29-12.84-15,6.67-15,6.67H374.8c-.26-1.48-.15-9.1,21.7-17.22,3.66-1.55,14.21-2.83,23.35-3.49,25.1-1.8,58,6.61,58,6.61s-2.13-15.37-2.84-22.11C481.73,259.65,496.7,257.12,502.94,256.18Z"/><path class="cls-48" d="M450.39,276.56s9.15-.74,9.15,6.91-9.15,7.73-9.15,7.73"/><path class="cls-49" d="M451.46,301.25H428.73l-3.19-32.35a3,3,0,0,1,3.12-3.21h21.8a3,3,0,0,1,3.13,3.12Z"/><path class="cls-50" d="M553.89,500.15h-8.64c-2.59,0-4.69-1.41-4.69-3.16V315.52h18V497C558.58,498.74,556.48,500.15,553.89,500.15Z"/><path class="cls-51" d="M246.26,500.15H235c-1.54,0-2.79-.9-2.79-2V315.52h16.84V498.14C249.06,499.25,247.81,500.15,246.26,500.15Z"/><path class="cls-52" d="M232.51,301.28H558.1a10.45,10.45,0,0,1,10.45,10.45v8.47a0,0,0,0,1,0,0H222.06a0,0,0,0,1,0,0v-8.47A10.45,10.45,0,0,1,232.51,301.28Z"/><path class="cls-53" d="M434.06,193.45l-17.38,4.73-3.25,15.09,6.43,33.26S427.28,203.74,434.06,193.45Z"/><circle class="cls-54" cx="477.11" cy="173.7" r="12.32"/><circle class="cls-55" cx="463.47" cy="181.28" r="12.32"/><circle class="cls-56" cx="392.17" cy="124.83" r="12.32"/><circle class="cls-56" cx="392.17" cy="135.16" r="12.32"/><circle class="cls-56" cx="394.03" cy="149.47" r="12.32"/><circle class="cls-56" cx="399.79" cy="161.29" r="12.32"/><path class="cls-57" d="M496.22,135.16a56.77,56.77,0,1,1-108.76-22.81h0a56.78,56.78,0,0,1,108.76,22.82Z"/><path class="cls-58" d="M457.09,198.22s-.15-6-2.56-24.11c0-.28-.06-.55-.1-.8a40.26,40.26,0,0,1-.4-5.18l.18-.33c5.24-9.35,4.35-15.49.72-17.55a5.46,5.46,0,0,0-1.52-.59h0s1.44-11.89-3.41-21.48c-6.42-12.68-24.71-12.82-35.87-9.58s-20.92,16.69-17.1,29.07c1.52,4.92,3.82,9.39,4.38,13.89s-1.28,12,2.18,19.26c4.94,10.47,16.26,13.27,23.19,13.24a22.37,22.37,0,0,0,2.64-.18l.31,1.88.66,4.56L430,221.11a2.85,2.85,0,0,0,4.93,2C442.93,214.44,457.63,201.59,457.09,198.22Z"/><path class="cls-59" d="M454.53,174.11A40.24,40.24,0,0,1,430,197.29l-.25-1.53-.31-1.88c7.59-4.15,16.06-11.87,24.79-26.08l-.18.33a40.26,40.26,0,0,0,.4,5.18C454.47,173.56,454.49,173.83,454.53,174.11Z"/><path class="cls-60" d="M450,155.67s1.95-3.66,4-1.37,0,7,0,7Z"/><path class="cls-56" d="M496.22,135.16a56.57,56.57,0,0,1-13,36.1c-19.61,0-19.93-31.54-38.57-18.16-15.92,11.42-57.24-21.17-57.24-40.75h0a56.78,56.78,0,0,1,108.76,22.82Z"/><path class="cls-61" d="M437,159.69a15.63,15.63,0,0,0,12.49-9.22,19.9,19.9,0,0,0-4.8,2.38c-10.8,7.75-33.12-4.52-46.47-19.48a22,22,0,0,0-1.86,8.78C406,153.54,421.51,161.32,437,159.69Z"/><circle class="cls-56" cx="402.26" cy="104.5" r="12.32"/><circle class="cls-56" cx="395.35" cy="112.16" r="12.32"/><circle class="cls-56" cx="409.67" cy="95.79" r="12.32"/><circle class="cls-56" cx="422" cy="90.72" r="12.32"/><circle class="cls-56" cx="437.68" cy="87.51" r="12.32"/><circle class="cls-56" cx="453.27" cy="87.51" r="12.32"/><circle class="cls-56" cx="464.79" cy="93.93" r="12.32"/><circle class="cls-56" cx="475.79" cy="99.83" r="12.32"/><circle class="cls-56" cx="484.83" cy="113.82" r="12.32"/><circle class="cls-56" cx="489.43" cy="126.53" r="12.32"/><circle class="cls-56" cx="491.33" cy="143.11" r="12.32"/><circle class="cls-56" cx="484.83" cy="159.12" r="12.32"/><path class="cls-62" d="M468.14,193.1l-9.71,1.5S439.72,220,436.54,248.23a14.16,14.16,0,0,0,0,2.19c9.87-27.9,40.53-44.4,40.53-44.4Z"/><polygon class="cls-63" points="467.91 192.77 456.53 190.99 456.8 196.96 468.14 193.1 467.91 192.77"/><path class="cls-64" d="M410.81,322.21,382.62,333.3a30.28,30.28,0,0,0-16.89,16.61L317.56,460.08"/><polyline class="cls-65" points="141.35 90.72 141.35 121.7 175.38 121.7 175.38 167.02"/><polyline class="cls-65" points="168.01 75.19 201.14 75.19 201.14 95.79 249.06 95.79"/><polyline class="cls-65" points="261.64 112.5 261.64 138.85 295.9 138.85 295.9 168.96"/><polyline class="cls-65" points="187.03 171.44 225.07 171.44 225.07 182.54 270.04 182.54"/><rect class="cls-66" x="222.09" y="71.06" width="79.09" height="50.64" rx="9.14"/><rect class="cls-66" x="249.06" y="155.96" width="79.09" height="50.64" rx="9.14"/><rect class="cls-66" x="101.8" y="52.4" width="79.09" height="50.64" rx="9.14"/><rect class="cls-66" x="124.92" y="146.12" width="79.09" height="50.64" rx="9.14"/></g></g></svg>